<svg width="20" height="20" viewBox="0 0 20 20" fill="none" xmlns="http://www.w3.org/2000/svg">
<path d="M8.51549 3.9578C9.26099 2.97463 10.739 2.97463 11.4845 3.9578C11.8913 4.49425 12.5558 4.76952 13.2228 4.67782C14.4451 4.50975 15.4902 5.55487 15.3222 6.77722C15.2305 7.44418 15.5057 8.10873 16.0422 8.51549C17.0254 9.26099 17.0254 10.739 16.0422 11.4845C15.5057 11.8913 15.2305 12.5558 15.3222 13.2228C15.4902 14.4451 14.4451 15.4902 13.2228 15.3222C12.5558 15.2305 11.8913 15.5057 11.4845 16.0422C10.739 17.0254 9.26099 17.0254 8.51549 16.0422C8.10873 15.5057 7.44418 15.2305 6.77722 15.3222C5.55488 15.4902 4.50975 14.4451 4.67782 13.2228C4.76952 12.5558 4.49425 11.8913 3.9578 11.4845C2.97463 10.739 2.97463 9.26099 3.9578 8.51549C4.49425 8.10873 4.76952 7.44418 4.67782 6.77722C4.50975 5.55487 5.55488 4.50975 6.77722 4.67782C7.44418 4.76952 8.10873 4.49425 8.51549 3.9578Z" fill="#24599C"/>
</svg>
